<svg width="128" height="30" viewBox="0 0 128 30" fill="none" xmlns="http://www.w3.org/2000/svg">
<path d="M11.0411 22.6938L6.91552 11.4513C6.75723 11.0338 6.57915 10.5368 6.38128 9.96024C6.20319 9.36382 6.01522 8.71769 5.81735 8.02187C5.63927 7.32604 5.47108 6.61034 5.31278 5.87475H5.2831C5.24353 6.90855 5.20396 7.90258 5.16438 8.85686C5.12481 9.81113 5.07534 10.7256 5.01598 11.6004L4.54109 17.8926C4.50152 18.3897 4.45205 18.8767 4.39269 19.3539C4.35312 19.831 4.30365 20.2187 4.24429 20.5169C4.60046 20.497 4.99619 20.4771 5.43151 20.4573C5.8866 20.4374 6.24277 20.4274 6.5 20.4274L6.41096 22.3956H0L0.118721 20.7555C0.613394 20.7356 1.00913 20.6561 1.30594 20.5169C1.62253 20.3579 1.85008 20.0895 1.98858 19.7117C2.14688 19.334 2.25571 18.7972 2.31507 18.1014L3.26484 6.02386C3.30441 5.52684 3.34399 5.03976 3.38356 4.56262C3.44292 4.08549 3.49239 3.69781 3.53196 3.3996C3.21537 3.41948 2.82953 3.43936 2.37443 3.45924C1.93912 3.45924 1.59285 3.46918 1.33562 3.48907L1.45434 1.52087H7.15297L11.3973 13.3002C11.7138 14.1948 11.9909 15.0497 12.2283 15.8648C12.4855 16.66 12.7329 17.4354 12.9703 18.1909H13C13.277 17.5547 13.554 16.8787 13.831 16.163C14.1278 15.4473 14.4049 14.7913 14.6621 14.1948C15.2557 12.8032 15.8592 11.4016 16.4726 9.99006C17.1058 8.55865 17.7291 7.13718 18.3425 5.72565C18.9756 4.31412 19.589 2.91252 20.1826 1.52087H26.2078L26.1187 3.16103C25.6636 3.16103 25.2679 3.23062 24.9315 3.36978C24.5951 3.50895 24.3379 3.77734 24.1598 4.17495C23.9817 4.55268 23.8828 5.14911 23.863 5.96422L23.8036 18.1014C23.8036 18.5785 23.7839 19.0358 23.7443 19.4732C23.7047 19.9105 23.6552 20.2584 23.5959 20.5169C23.952 20.497 24.3478 20.4771 24.7831 20.4573C25.2382 20.4374 25.5944 20.4274 25.8516 20.4274L25.7329 22.3956H18.016L18.105 20.7555C18.5997 20.7356 19.0053 20.6561 19.3219 20.5169C19.6385 20.3777 19.8759 20.1093 20.0342 19.7117C20.2123 19.2942 20.3014 18.668 20.3014 17.833L20.3607 10.2286C20.3607 9.97018 20.3607 9.59245 20.3607 9.09543C20.3607 8.59841 20.3607 8.06163 20.3607 7.48509C20.3805 6.90855 20.3904 6.36183 20.3904 5.84493H20.331L19.0548 8.88668L13.1187 22.6938H11.0411Z" fill="#252525"/>
<path d="M37.3423 1.46123C39.1429 1.46123 40.6467 1.67992 41.8537 2.1173C43.0607 2.55467 43.9511 3.22068 44.5249 4.11531C45.1185 4.99006 45.3659 6.1332 45.2669 7.54473C45.2076 8.35984 44.98 9.15507 44.5843 9.93042C44.1886 10.6859 43.595 11.3618 42.8035 11.9583C42.012 12.5547 40.9732 13.0219 39.687 13.3598C39.9047 13.5189 40.0927 13.6779 40.251 13.837C40.4291 13.9761 40.5873 14.1252 40.7259 14.2843C40.8841 14.4235 41.0325 14.5924 41.1711 14.7913C41.3294 14.9901 41.4876 15.2187 41.6459 15.4771L43.1003 17.9523C43.4762 18.5686 43.8126 19.0855 44.1094 19.503C44.426 19.9006 44.7525 20.2087 45.0889 20.4274C45.445 20.6262 45.8704 20.7356 46.3651 20.7555L46.2761 22.3956H41.8537C41.4975 22.0974 41.1315 21.6899 40.7555 21.173C40.3994 20.6561 40.0432 20.0696 39.687 19.4135L37.7578 15.9841C37.5204 15.5666 37.2928 15.1789 37.0752 14.8211C36.8575 14.4433 36.6201 14.1252 36.3628 13.8668C36.165 13.8867 35.9572 13.8966 35.7396 13.8966C35.5219 13.8966 35.3141 13.8966 35.1163 13.8966C34.9382 13.8767 34.77 13.8668 34.6117 13.8668L34.4039 17.9225C34.3841 18.4791 34.3446 18.9861 34.2852 19.4433C34.2456 19.9006 34.2061 20.2584 34.1665 20.5169C34.3842 20.497 34.6414 20.4871 34.9382 20.4871C35.2548 20.4672 35.5516 20.4573 35.8286 20.4573C36.1254 20.4374 36.3628 20.4274 36.5409 20.4274L36.4519 22.3956H28.4382L28.5272 20.7555C29.0813 20.7356 29.5067 20.6461 29.8035 20.4871C30.1201 20.3082 30.3476 20.0099 30.4861 19.5924C30.6444 19.1551 30.7335 18.5586 30.7533 17.8032L31.3765 5.90457C31.4161 5.40756 31.4557 4.93042 31.4953 4.47316C31.5546 4.01591 31.6041 3.65805 31.6437 3.3996C31.3073 3.41948 30.9214 3.43936 30.4861 3.45924C30.0508 3.45924 29.6947 3.46918 29.4176 3.48907L29.5364 1.52087C30.8423 1.50099 32.1383 1.49105 33.4245 1.49105C34.7304 1.47117 36.0364 1.46123 37.3423 1.46123ZM37.1939 3.22068C36.6794 3.22068 36.2639 3.3002 35.9473 3.45924C35.6505 3.61829 35.4329 3.89662 35.2943 4.29423C35.1558 4.69185 35.0668 5.23857 35.0272 5.93439L34.7007 11.9881C34.958 12.008 35.2152 12.0278 35.4724 12.0477C35.7297 12.0676 35.9968 12.0775 36.2738 12.0775C37.3819 12.0577 38.302 11.8887 39.0341 11.5706C39.786 11.2525 40.3598 10.7555 40.7555 10.0795C41.1513 9.40358 41.3788 8.53877 41.4382 7.48509C41.4778 6.59046 41.3689 5.86481 41.1117 5.30815C40.8743 4.75149 40.5478 4.32406 40.1322 4.02584C39.7167 3.70775 39.2418 3.49901 38.7076 3.3996C38.1931 3.28032 37.6886 3.22068 37.1939 3.22068Z" fill="#252525"/>
<path d="M64.7908 1.46123C66.5914 1.46123 68.0952 1.67992 69.3022 2.1173C70.5092 2.55467 71.3997 3.22068 71.9735 4.11531C72.5671 4.99006 72.8144 6.1332 72.7155 7.54473C72.6561 8.35984 72.4286 9.15507 72.0328 9.93042C71.6371 10.6859 71.0435 11.3618 70.252 11.9583C69.4605 12.5547 68.4217 13.0219 67.1356 13.3598C67.3532 13.5189 67.5412 13.6779 67.6995 13.837C67.8776 13.9761 68.0359 14.1252 68.1744 14.2843C68.3327 14.4235 68.4811 14.5924 68.6196 14.7913C68.7779 14.9901 68.9362 15.2187 69.0945 15.4771L70.5488 17.9523C70.9248 18.5686 71.2611 19.0855 71.5579 19.503C71.8745 19.9006 72.201 20.2087 72.5374 20.4274C72.8936 20.6262 73.319 20.7356 73.8137 20.7555L73.7246 22.3956H69.3022C68.9461 22.0974 68.58 21.6899 68.2041 21.173C67.8479 20.6561 67.4917 20.0696 67.1356 19.4135L65.2063 15.9841C64.9689 15.5666 64.7414 15.1789 64.5237 14.8211C64.306 14.4433 64.0686 14.1252 63.8114 13.8668C63.6135 13.8867 63.4057 13.8966 63.1881 13.8966C62.9704 13.8966 62.7627 13.8966 62.5648 13.8966C62.3867 13.8767 62.2185 13.8668 62.0602 13.8668L61.8525 17.9225C61.8327 18.4791 61.7931 18.9861 61.7337 19.4433C61.6942 19.9006 61.6546 20.2584 61.615 20.5169C61.8327 20.497 62.0899 20.4871 62.3867 20.4871C62.7033 20.4672 63.0001 20.4573 63.2771 20.4573C63.5739 20.4374 63.8114 20.4274 63.9895 20.4274L63.9004 22.3956H55.8867L55.9758 20.7555C56.5298 20.7356 56.9552 20.6461 57.252 20.4871C57.5686 20.3082 57.7962 20.0099 57.9347 19.5924C58.093 19.1551 58.182 18.5586 58.2018 17.8032L58.8251 5.90457C58.8646 5.40756 58.9042 4.93042 58.9438 4.47316C59.0032 4.01591 59.0526 3.65805 59.0922 3.3996C58.7558 3.41948 58.37 3.43936 57.9347 3.45924C57.4993 3.45924 57.1432 3.46918 56.8662 3.48907L56.9849 1.52087C58.2908 1.50099 59.5869 1.49105 60.873 1.49105C62.179 1.47117 63.4849 1.46123 64.7908 1.46123ZM64.6424 3.22068C64.128 3.22068 63.7124 3.3002 63.3958 3.45924C63.099 3.61829 62.8814 3.89662 62.7429 4.29423C62.6044 4.69185 62.5153 5.23857 62.4758 5.93439L62.1493 11.9881C62.4065 12.008 62.6637 12.0278 62.921 12.0477C63.1782 12.0676 63.4453 12.0775 63.7223 12.0775C64.8304 12.0577 65.7505 11.8887 66.4826 11.5706C67.2345 11.2525 67.8083 10.7555 68.2041 10.0795C68.5998 9.40358 68.8273 8.53877 68.8867 7.48509C68.9263 6.59046 68.8175 5.86481 68.5602 5.30815C68.3228 4.75149 67.9963 4.32406 67.5808 4.02584C67.1653 3.70775 66.6904 3.49901 66.1561 3.3996C65.6417 3.28032 65.1371 3.22068 64.6424 3.22068Z" fill="#252525"/>
<path d="M82.5195 7.15706C83.3308 7.15706 84.0629 7.28628 84.7159 7.54473C85.3886 7.7833 85.9129 8.17097 86.2889 8.70775C86.6649 9.24453 86.8528 9.94036 86.8528 10.7952C86.8528 11.6103 86.5956 12.3062 86.0811 12.8827C85.5865 13.4592 84.9236 13.9364 84.0926 14.3141C83.2813 14.672 82.4008 14.9702 81.451 15.2087C80.5012 15.4473 79.5811 15.6163 78.6907 15.7157C78.6907 16.8887 78.8193 17.8231 79.0766 18.5189C79.3338 19.1948 79.6801 19.6819 80.1154 19.9801C80.5705 20.2584 81.0652 20.3976 81.5994 20.3976C82.0149 20.3976 82.47 20.3181 82.9647 20.159C83.4792 19.9801 83.9837 19.662 84.4784 19.2048C84.9731 18.7475 85.4084 18.1113 85.7843 17.2962L87.209 18.0119C86.655 19.2247 86.0416 20.1789 85.3688 20.8748C84.6961 21.5507 83.9837 22.0278 83.2318 22.3062C82.4799 22.5845 81.6983 22.7237 80.8871 22.7237C79.0469 22.7435 77.6222 22.1968 76.6131 21.0835C75.604 19.9702 75.0994 18.3598 75.0994 16.2525C75.0994 15.2187 75.2478 14.175 75.5446 13.1213C75.8414 12.0477 76.2866 11.0636 76.8802 10.169C77.4936 9.27435 78.2653 8.54871 79.1953 7.99205C80.1253 7.43539 81.2334 7.15706 82.5195 7.15706ZM82.1633 8.79722C81.4114 8.79722 80.798 9.06561 80.3232 9.60239C79.8483 10.1193 79.4822 10.7853 79.225 11.6004C78.9875 12.3956 78.8292 13.2207 78.7501 14.0755C79.8186 13.8966 80.7189 13.6382 81.451 13.3002C82.1831 12.9423 82.747 12.5249 83.1428 12.0477C83.5385 11.5706 83.7364 11.0437 83.7364 10.4672C83.7166 9.93042 83.5583 9.52286 83.2615 9.24453C82.9647 8.94632 82.5986 8.79722 82.1633 8.79722Z" fill="#252525"/>
<path d="M96.341 7.15706C97.2314 7.15706 98.0229 7.30616 98.7155 7.60437C99.4278 7.90258 99.9917 8.32008 100.407 8.85686C100.823 9.37376 101.031 9.99006 101.031 10.7058C101.031 11.2425 100.872 11.6899 100.556 12.0477C100.259 12.3857 99.8532 12.5547 99.3388 12.5547C98.7254 12.5746 98.29 12.3956 98.0328 12.0179C97.7954 11.6402 97.6767 11.3022 97.6767 11.004C97.6767 10.825 97.6964 10.6262 97.736 10.4076C97.7954 10.1889 97.8844 9.98012 98.0031 9.78131C97.924 9.4831 97.7261 9.25447 97.4095 9.09543C97.0929 8.9165 96.717 8.82704 96.2817 8.82704C95.5694 8.82704 94.9856 9.04573 94.5305 9.4831C94.0754 9.92048 93.7094 10.4771 93.4324 11.1531C93.1751 11.829 92.9872 12.5547 92.8684 13.33C92.7497 14.0855 92.6904 14.8012 92.6904 15.4771C92.6508 16.6501 92.7596 17.5944 93.0168 18.3101C93.2939 19.0258 93.65 19.5527 94.0853 19.8907C94.5404 20.2087 95.0252 20.3777 95.5397 20.3976C95.9552 20.4175 96.4103 20.3479 96.905 20.1889C97.4194 20.0298 97.924 19.7117 98.4187 19.2346C98.9133 18.7376 99.3585 18.0219 99.7543 17.0875L101.238 17.8032C100.704 19.0557 100.091 20.0398 99.3981 20.7555C98.7254 21.4712 98.0031 21.9781 97.2315 22.2763C96.4795 22.5547 95.698 22.7038 94.8867 22.7237C93.1455 22.7038 91.7406 22.167 90.6721 21.1133C89.6234 20.0596 89.099 18.4294 89.099 16.2227C89.099 15.2485 89.2375 14.2346 89.5146 13.1809C89.8114 12.1272 90.2566 11.1531 90.8502 10.2585C91.4438 9.34394 92.1957 8.59841 93.1059 8.02187C94.0161 7.44533 95.0945 7.15706 96.341 7.15706Z" fill="#252525"/>
<path d="M106.484 7.15706C107.454 7.15706 108.137 7.46521 108.532 8.08151C108.948 8.67793 109.156 9.4831 109.156 10.497C109.156 11.0139 109.106 11.67 109.007 12.4652C108.908 13.2604 108.789 14.1054 108.651 15C108.532 15.8946 108.414 16.7396 108.295 17.5348C108.196 18.3101 108.146 18.9463 108.146 19.4433C108.146 19.7813 108.206 20.0199 108.324 20.159C108.443 20.2982 108.592 20.3678 108.77 20.3678C109.027 20.3678 109.304 20.1889 109.601 19.831C109.898 19.4533 110.184 18.7873 110.461 17.833L111.797 18.2207C111.718 18.6382 111.57 19.1054 111.352 19.6223C111.134 20.1392 110.847 20.6362 110.491 21.1133C110.155 21.5706 109.739 21.9583 109.245 22.2763C108.75 22.5746 108.186 22.7237 107.553 22.7237C106.524 22.7237 105.802 22.4453 105.386 21.8887C104.971 21.332 104.763 20.5467 104.763 19.5328C104.763 18.8569 104.812 18.1213 104.911 17.326C105.03 16.5109 105.159 15.6958 105.297 14.8807C105.436 14.0457 105.554 13.2505 105.653 12.495C105.752 11.7396 105.802 11.0636 105.802 10.4672C105.802 10.1491 105.752 9.91054 105.653 9.75149C105.554 9.59245 105.406 9.51292 105.208 9.51292C104.971 9.51292 104.703 9.70179 104.407 10.0795C104.11 10.4374 103.823 11.0934 103.546 12.0477L102.21 11.66C102.27 11.2624 102.408 10.8052 102.626 10.2883C102.844 9.77137 103.13 9.27435 103.487 8.79722C103.863 8.32008 104.298 7.93241 104.793 7.63419C105.287 7.3161 105.851 7.15706 106.484 7.15706ZM107.761 0C108.334 0 108.809 0.208748 109.185 0.626243C109.561 1.04374 109.729 1.57058 109.69 2.20676C109.69 2.82306 109.492 3.33996 109.096 3.75746C108.7 4.17495 108.206 4.3837 107.612 4.3837C107.019 4.3837 106.534 4.17495 106.158 3.75746C105.802 3.33996 105.624 2.82306 105.624 2.20676C105.663 1.57058 105.891 1.04374 106.306 0.626243C106.722 0.208748 107.207 0 107.761 0Z" fill="#252525"/>
<path d="M113.071 30V28.4195C113.585 28.4195 113.961 28.2803 114.199 28.002C114.436 27.7237 114.604 27.336 114.703 26.839C114.802 26.3618 114.871 25.825 114.911 25.2286C115.109 23.1014 115.277 21.2127 115.416 19.5626C115.554 17.8926 115.663 16.4513 115.742 15.2386C115.841 14.0258 115.91 13.0417 115.95 12.2863C116.009 11.5109 116.039 10.9543 116.039 10.6163C116.039 10.2386 115.989 9.96024 115.89 9.78131C115.811 9.60239 115.673 9.51292 115.475 9.51292C115.218 9.51292 114.941 9.70179 114.644 10.0795C114.347 10.4374 114.07 11.0934 113.813 12.0477L112.448 11.66C112.527 11.2624 112.655 10.8052 112.833 10.2883C113.011 9.77137 113.259 9.27435 113.575 8.79722C113.892 8.32008 114.278 7.93241 114.733 7.63419C115.208 7.3161 115.762 7.15706 116.395 7.15706C117.107 7.15706 117.681 7.38569 118.116 7.84294C118.552 8.3002 118.769 9.02584 118.769 10.0199C118.769 10.4573 118.74 10.8648 118.68 11.2425C118.641 11.6004 118.591 11.9682 118.532 12.3459H118.591C119.086 10.9344 119.62 9.86084 120.194 9.12525C120.788 8.36978 121.391 7.85288 122.005 7.57455C122.618 7.29622 123.192 7.15706 123.726 7.15706C124.676 7.15706 125.467 7.40557 126.1 7.90258C126.734 8.3996 127.209 9.07555 127.525 9.93042C127.842 10.7853 128 11.7694 128 12.8827C128 14.7913 127.683 16.4911 127.05 17.9821C126.437 19.4533 125.497 20.6163 124.231 21.4712C122.984 22.3062 121.411 22.7237 119.511 22.7237C119.353 22.7237 119.175 22.7137 118.977 22.6938C118.779 22.6938 118.591 22.6839 118.413 22.664C118.354 23.8171 118.295 24.7416 118.235 25.4374C118.196 26.1531 118.156 26.7097 118.116 27.1074C118.097 27.5249 118.057 27.8827 117.998 28.1809C118.314 28.1412 118.651 28.1113 119.007 28.0915C119.383 28.0915 119.69 28.0915 119.927 28.0915V30H113.071ZM119.897 21.0835C120.629 21.0835 121.253 20.8946 121.767 20.5169C122.301 20.1392 122.737 19.6521 123.073 19.0557C123.429 18.4592 123.706 17.8032 123.904 17.0875C124.102 16.3718 124.24 15.666 124.32 14.9702C124.419 14.2744 124.468 13.6481 124.468 13.0915C124.468 12.2962 124.409 11.6302 124.29 11.0934C124.171 10.5368 123.983 10.1193 123.726 9.84095C123.489 9.56262 123.182 9.42346 122.806 9.42346C122.351 9.42346 121.916 9.63221 121.5 10.0497C121.104 10.4473 120.728 11.0239 120.372 11.7793C120.036 12.5149 119.739 13.3897 119.482 14.4036C119.225 15.4175 119.007 16.5408 118.829 17.7734C118.769 18.2505 118.71 18.7475 118.651 19.2644C118.591 19.7614 118.542 20.2883 118.502 20.8449C118.76 20.9046 119.007 20.9642 119.244 21.0239C119.502 21.0636 119.719 21.0835 119.897 21.0835Z" fill="#252525"/>
</svg>
